<svg id="visual" viewBox="0 0 1440 1080" width="1440" height="1080" xmlns="http://www.w3.org/2000/svg" xmlns:xlink="http://www.w3.org/1999/xlink" version="1.1"><path d="M0 108L26.7 104.8C53.3 101.7 106.7 95.3 160 96.5C213.3 97.7 266.7 106.3 320 107.2C373.3 108 426.7 101 480 98.3C533.3 95.7 586.7 97.3 640 96.3C693.3 95.3 746.7 91.7 800 93.8C853.3 96 906.7 104 960 109.7C1013.3 115.3 1066.7 118.7 1120 119.7C1173.3 120.7 1226.7 119.3 1280 120.2C1333.3 121 1386.7 124 1413.3 125.5L1440 127L1440 0L1413.3 0C1386.7 0 1333.3 0 1280 0C1226.7 0 1173.3 0 1120 0C1066.7 0 1013.3 0 960 0C906.7 0 853.3 0 800 0C746.7 0 693.3 0 640 0C586.7 0 533.3 0 480 0C426.7 0 373.3 0 320 0C266.7 0 213.3 0 160 0C106.7 0 53.3 0 26.7 0L0 0Z" fill="#0066FF" stroke-linecap="round" stroke-linejoin="miter"></path></svg>