<svg id="visual" viewBox="0 0 2560 1440" width="2560" height="1440" xmlns="http://www.w3.org/2000/svg" xmlns:xlink="http://www.w3.org/1999/xlink" version="1.1"><path d="M0 81L38.8 81.5C77.7 82 155.3 83 232.8 81.7C310.3 80.3 387.7 76.7 465.2 76.3C542.7 76 620.3 79 698 77.8C775.7 76.7 853.3 71.3 931 71.2C1008.7 71 1086.3 76 1163.8 76.5C1241.3 77 1318.7 73 1396.2 70.2C1473.7 67.3 1551.3 65.7 1629 68C1706.7 70.3 1784.3 76.7 1862 79.2C1939.7 81.7 2017.3 80.3 2094.8 76.8C2172.3 73.3 2249.7 67.7 2327.2 67.8C2404.7 68 2482.3 74 2521.2 77L2560 80L2560 0L2521.2 0C2482.3 0 2404.7 0 2327.2 0C2249.7 0 2172.3 0 2094.8 0C2017.3 0 1939.7 0 1862 0C1784.3 0 1706.7 0 1629 0C1551.3 0 1473.7 0 1396.2 0C1318.7 0 1241.3 0 1163.8 0C1086.3 0 1008.7 0 931 0C853.3 0 775.7 0 698 0C620.3 0 542.7 0 465.2 0C387.7 0 310.3 0 232.8 0C155.3 0 77.7 0 38.8 0L0 0Z" fill="#c6d9ff" stroke-linecap="round" stroke-linejoin="miter"></path></svg>