<svg id="visual" viewBox="0 0 2560 100" width="2560" height="100" xmlns="http://www.w3.org/2000/svg" xmlns:xlink="http://www.w3.org/1999/xlink" version="1.1"><path d="M0 53L38.8 52.8C77.7 52.7 155.3 52.3 232.8 53.2C310.3 54 387.7 56 465.2 56.2C542.7 56.3 620.3 54.7 698 55.3C775.7 56 853.3 59 931 59C1008.7 59 1086.3 56 1163.8 55.7C1241.3 55.3 1318.7 57.7 1396.2 59.3C1473.7 61 1551.3 62 1629 60.7C1706.7 59.3 1784.3 55.7 1862 54.3C1939.7 53 2017.3 54 2094.8 56C2172.3 58 2249.7 61 2327.2 60.8C2404.7 60.7 2482.3 57.3 2521.2 55.7L2560 54L2560 101L2521.2 101C2482.3 101 2404.7 101 2327.2 101C2249.7 101 2172.3 101 2094.8 101C2017.3 101 1939.7 101 1862 101C1784.3 101 1706.7 101 1629 101C1551.3 101 1473.7 101 1396.2 101C1318.7 101 1241.3 101 1163.8 101C1086.3 101 1008.7 101 931 101C853.3 101 775.7 101 698 101C620.3 101 542.7 101 465.2 101C387.7 101 310.3 101 232.8 101C155.3 101 77.7 101 38.8 101L0 101Z" fill="#c6d9ff" stroke-linecap="round" stroke-linejoin="miter"></path></svg>