<svg id="visual" viewBox="0 0 900 600" width="900" height="600" xmlns="http://www.w3.org/2000/svg" xmlns:xlink="http://www.w3.org/1999/xlink" version="1.1"><path d="M0 519L15 517C30 515 60 511 90 508.3C120 505.7 150 504.3 180 509.7C210 515 240 527 270 525.8C300 524.7 330 510.3 360 509.5C390 508.7 420 521.3 450 527.8C480 534.3 510 534.7 540 532.8C570 531 600 527 630 518.3C660 509.7 690 496.3 720 493.3C750 490.3 780 497.7 810 506.7C840 515.7 870 526.3 885 531.7L900 537L900 601L885 601C870 601 840 601 810 601C780 601 750 601 720 601C690 601 660 601 630 601C600 601 570 601 540 601C510 601 480 601 450 601C420 601 390 601 360 601C330 601 300 601 270 601C240 601 210 601 180 601C150 601 120 601 90 601C60 601 30 601 15 601L0 601Z" fill="#0066FF" stroke-linecap="round" stroke-linejoin="miter"></path></svg>