<svg id="visual" viewBox="0 0 900 600" width="900" height="600" xmlns="http://www.w3.org/2000/svg" xmlns:xlink="http://www.w3.org/1999/xlink" version="1.1"><path d="M0 98L21.5 116.7C43 135.3 86 172.7 128.8 177.8C171.7 183 214.3 156 257.2 137.2C300 118.3 343 107.7 385.8 112C428.7 116.3 471.3 135.7 514.2 132.2C557 128.7 600 102.3 642.8 105.2C685.7 108 728.3 140 771.2 143.2C814 146.3 857 120.7 878.5 107.8L900 95L900 0L878.5 0C857 0 814 0 771.2 0C728.3 0 685.7 0 642.8 0C600 0 557 0 514.2 0C471.3 0 428.7 0 385.8 0C343 0 300 0 257.2 0C214.3 0 171.7 0 128.8 0C86 0 43 0 21.5 0L0 0Z" fill="#e5e5e5" stroke-linecap="round" stroke-linejoin="miter"></path></svg>